# xmcd
#
# Track frame offsets: 
#        150
#        14399
#        30521
#        47541
#        63207
#        78894
#        97417
#        113242
#        128410
#        142650
#
# Disc length: 2101 seconds
#
# Revision: 0
# Processed by: cddbd v1.5.2PL0 Copyright (c) Steve Scherf et al.
# Submitted via: ExactAudioCopy v1.0b3
#
DISCID=7208330a
DTITLE=ดวงตา คงทอง - สะเดาะเคราะห์ใจ
DYEAR=2007
DGENRE=Country
TTITLE0=สะเดาะเคราะห์ใจ
TTITLE1=ผู้ชายพายเรือ
TTITLE2=มองจันทร์วันเศร้า
TTITLE3=ตัดไฟต้นลม
TTITLE4=ก็มันรักไปแล้ว
TTITLE5=ฮัลโล..คิดถึง
TTITLE6=หัวใจอ้อนรัก
TTITLE7=สองมือ สองตา สองใจ
TTITLE8=ซอยคนจริงใจ
TTITLE9=เลิกวุ่นวายกับใจฉัน
EXTD=
EXTT0=
EXTT1=
EXTT2=
EXTT3=
EXTT4=
EXTT5=
EXTT6=
EXTT7=
EXTT8=
EXTT9=
PLAYORDER=
